<svg id="Layer_1" data-name="Layer 1" xmlns="http://www.w3.org/2000/svg" viewBox="0 0 113.39 113.42"><defs><style>.cls-1{fill:#30ceb2;}.cls-2{fill:#d170e1;}</style></defs><rect class="cls-1" x="50.65" y="1.86" width="12.2" height="45.55" rx="2.19" transform="translate(-0.8 47.28) rotate(-45)"/><rect class="cls-1" x="50.65" y="1.86" width="12.2" height="45.55" rx="2.19" transform="translate(79.45 82.13) rotate(-135)"/><rect class="cls-1" x="82.7" y="33.91" width="12.2" height="45.55" rx="2.19" transform="translate(-14.08 79.34) rotate(-45)"/><rect class="cls-1" x="82.7" y="33.91" width="12.2" height="45.55" rx="2.19" transform="translate(111.5 159.51) rotate(-135)"/><rect class="cls-1" x="18.58" y="33.91" width="12.2" height="45.55" rx="2.19" transform="translate(-32.86 33.99) rotate(-45)"/><rect class="cls-1" x="18.58" y="33.91" width="12.2" height="45.55" rx="2.19" transform="translate(2.04 114.17) rotate(-135)"/><rect class="cls-1" x="50.64" y="65.98" width="12.2" height="45.55" rx="2.19" transform="translate(-46.14 66.06) rotate(-45)"/><rect class="cls-1" x="50.64" y="65.98" width="12.2" height="45.55" rx="2.19" transform="translate(34.1 191.57) rotate(-135)"/><path class="cls-2" d="M56.75,101.3a6.09,6.09,0,1,0,6.09,6.09A6.09,6.09,0,0,0,56.75,101.3Zm0,8.58a2.5,2.5,0,1,1,2.5-2.5A2.5,2.5,0,0,1,56.77,109.88Z" transform="translate(0 -0.06)"/><path class="cls-2" d="M107.3,50.75a6.09,6.09,0,1,0,6.09,6.09A6.09,6.09,0,0,0,107.3,50.75Zm0,8.58a2.51,2.51,0,1,1,2.5-2.5A2.5,2.5,0,0,1,107.32,59.33Z" transform="translate(0 -0.06)"/><path class="cls-2" d="M6.09,50.6a6.09,6.09,0,1,0,6.08,6.09A6.09,6.09,0,0,0,6.09,50.6Zm0,8.58a2.51,2.51,0,1,1,2.5-2.5A2.5,2.5,0,0,1,6.11,59.18Z" transform="translate(0 -0.06)"/><path class="cls-2" d="M56.75,101.3a6.09,6.09,0,1,0,6.09,6.09A6.09,6.09,0,0,0,56.75,101.3Zm0,8.58a2.5,2.5,0,1,1,2.5-2.5A2.5,2.5,0,0,1,56.77,109.88Z" transform="translate(0 -0.06)"/><path class="cls-2" d="M56.74.06a6.09,6.09,0,1,0,6.08,6.08A6.09,6.09,0,0,0,56.74.06Zm0,8.57a2.5,2.5,0,1,1,2.5-2.5A2.51,2.51,0,0,1,56.76,8.63Z" transform="translate(0 -0.06)"/></svg>